<svg id="Layer_1" data-name="Layer 1" xmlns="http://www.w3.org/2000/svg" viewBox="0 0 239.33 50.04"><defs><style>.cls-1{fill:#231f20;}</style></defs><title>ithaca-k</title><path class="cls-1" d="M144.77,112.13v48.54h-11V112.13Z" transform="translate(-133.82 -111.41)"/><path class="cls-1" d="M163.7,121.35H150.6v-9.22h37.3v9.22H174.65v39.32h-11Z" transform="translate(-133.82 -111.41)"/><path class="cls-1" d="M204.74,112.13v18.65h18.08V112.13h10.94v48.54H222.82V140.36H204.74v20.31H193.8V112.13Z" transform="translate(-133.82 -111.41)"/><path class="cls-1" d="M254.64,148.21l-3.46,12.46h-11.3l14.76-48.54H269l15.12,48.54H272.28l-3.74-12.46ZM267,140l-3-10.3c-.87-2.88-1.73-6.48-2.45-9.36h-.14c-.72,2.88-1.44,6.56-2.24,9.36L256.22,140Z" transform="translate(-133.82 -111.41)"/><path class="cls-1" d="M324.34,159.37c-1.95.94-6.56,2.09-12.39,2.09-16.78,0-25.42-10.51-25.42-24.34,0-16.56,11.81-25.71,26.5-25.71,5.69,0,10,1.08,12,2.16l-2.31,8.65a23.08,23.08,0,0,0-9.22-1.8c-8.64,0-15.41,5.25-15.41,16,0,9.72,5.77,15.84,15.49,15.84a26,26,0,0,0,9.21-1.58Z" transform="translate(-133.82 -111.41)"/><path class="cls-1" d="M343.63,148.21l-3.46,12.46h-11.3l14.76-48.54H358l15.12,48.54H361.27l-3.74-12.46ZM355.94,140l-3-10.3c-.87-2.88-1.73-6.48-2.45-9.36h-.14c-.72,2.88-1.44,6.56-2.24,9.36L345.21,140Z" transform="translate(-133.82 -111.41)"/></svg>